<svg enable-background="new 0 0 125.2 90.3" height="91" viewBox="0 0 125.2 90.3" width="126" xmlns="http://www.w3.org/2000/svg"><g fill="#1d2445" transform="matrix(.99607718 0 0 .98910252 504 223)"><path d="m-482.8-179.8h12.1v27.2h-12.1z"/><path d="m-470.6-152.1h-12.1c-.3 0-.5-.2-.5-.5v-27.2c0-.3.2-.5.5-.5h12.1c.3 0 .5.2.5.5v27.2c0 .3-.3.5-.5.5zm-11.7-1h11.1v-26.2h-11.1z"/><path d="m-465.7-179.8h12.1v27.2h-12.1z"/><path d="m-453.6-152.1h-12.1c-.3 0-.5-.2-.5-.5v-27.2c0-.3.2-.5.5-.5h12.1c.3 0 .5.2.5.5v27.2c0 .3-.2.5-.5.5zm-11.6-1h11.1v-26.2h-11.1z"/><path d="m-448.7-184.4h12.1v31.8h-12.1z"/><path d="m-436.6-152.1h-12.1c-.3 0-.5-.2-.5-.5v-31.8c0-.3.2-.5.5-.5h12.1c.3 0 .5.2.5.5v31.8c0 .3-.2.5-.5.5zm-11.6-1h11.1v-30.8h-11.1z"/><path d="m-431.6-197.7h12.1v45.1h-12.1z"/><path d="m-419.5-152.1h-12.1c-.3 0-.5-.2-.5-.5v-45.1c0-.3.2-.5.5-.5h12.1c.3 0 .5.2.5.5v45.1c0 .3-.2.5-.5.5zm-11.6-1h11.1v-44.1h-11.1z"/><path d="m-414.6-209.2h12.1v56.6h-12.1z"/><path d="m-402.5-152.1h-12.1c-.3 0-.5-.2-.5-.5v-56.6c0-.3.2-.5.5-.5h12.1c.3 0 .5.2.5.5v56.6c0 .3-.2.5-.5.5zm-11.6-1h11.1v-55.6h-11.1z"/></g></svg>